PathFileType	4	(X/Y/Z)	/Users/itak/Documents/Research/Walk-IL/dataset/trc/00086_00006.trc
DataRate	CameraRate	NumFrames	NumMarkers	Units	OrigDataRate	OrigDataStartFrame	OrigNumFrames
100.000000	100.000000	4	53	mm	100.000000	279	559
Frame#	Time	RPSI			LPSI			L3			STRN			T10			C7			CLAV			RBAK			LBAK			LSHO			LUPA			LAEL			LAOL			LWTS			LWPS			LFRA			LIFD			LHPS			LHTS			RSHO			RUPA			RAEL			RAOL			RWTS			RWPS			RFRA			RIFD			RHTS			RHPS			RBHD			LFHD			RFHD			LBHD			LHIP			RHIP			RASI			LASI			LKNE			LTHI			LANK			LTIP			LTOE			LMT1			LMT5			LHEE			RKNE			RTHI			RANK			RTIP			RTOE			RMT1			RMT5			RHEE			
		X1	Y1	Z1	X2	Y2	Z2	X3	Y3	Z3	X4	Y4	Z4	X5	Y5	Z5	X6	Y6	Z6	X7	Y7	Z7	X8	Y8	Z8	X9	Y9	Z9	X10	Y10	Z10	X11	Y11	Z11	X12	Y12	Z12	X13	Y13	Z13	X14	Y14	Z14	X15	Y15	Z15	X16	Y16	Z16	X17	Y17	Z17	X18	Y18	Z18	X19	Y19	Z19	X20	Y20	Z20	X21	Y21	Z21	X22	Y22	Z22	X23	Y23	Z23	X24	Y24	Z24	X25	Y25	Z25	X26	Y26	Z26	X27	Y27	Z27	X28	Y28	Z28	X29	Y29	Z29	X30	Y30	Z30	X31	Y31	Z31	X32	Y32	Z32	X33	Y33	Z33	X34	Y34	Z34	X35	Y35	Z35	X36	Y36	Z36	X37	Y37	Z37	X38	Y38	Z38	X39	Y39	Z39	X40	Y40	Z40	X41	Y41	Z41	X42	Y42	Z42	X43	Y43	Z43	X44	Y44	Z44	X45	Y45	Z45	X46	Y46	Z46	X47	Y47	Z47	X48	Y48	Z48	X49	Y49	Z49	X50	Y50	Z50	X51	Y51	Z51	X52	Y52	Z52	X53	Y53	Z53	

280	2.79	-638.2952880859375	1007.8671875	415.1429443359375	-698.3900756835938	1003.384765625	253.7503204345703	-673.1270751953125	1072.164306640625	322.3544311523438	-423.3059692382812	1260.225341796875	263.3901672363281	-688.6737670898438	1200.514892578125	310.1582946777344	-622.3284301757812	1466.696411132812	306.3958129882812	-449.0308227539062	1375.481689453125	273.9002075195312	-674.4369506835938	1325.48681640625	383.6692199707031	-664.5894775390625	1435.8544921875	208.2744140625	-573.8941040039062	1442.533325195312	120.9488372802734	-594.379150390625	1317.342895507812	41.29488754272461	-548.9520263671875	1104.81982421875	13.17200660705566	-601.9281616210938	1080.347778320312	101.4083480834961	-394.4563903808594	904.0347290039062	84.61394500732422	-450.5298156738281	870.5208129882812	31.18145561218262	-501.939208984375	1002.80517578125	9.720893859863281	-323.8681945800781	733.8914794921875	116.7801742553711	-395.0696411132812	803.8451538085938	40.09793472290039	-348.3797607421875	831.9805297851562	85.31401062011719	-531.2597045898438	1418.014282226562	465.5723571777344	-538.5865478515625	1348.243774414062	526.3766479492188	-590.0029907226562	1091.913330078125	562.2803955078125	-580.783447265625	1065.739868164062	465.690185546875	-476.8195190429688	826.4728393554688	521.206787109375	-544.54150390625	819.4041748046875	578.340087890625	-584.126953125	1011.361328125	571.6021728515625	-491.3104248046875	636.7308959960938	514.9249267578125	-465.9176025390625	723.26123046875	523.4759521484375	-515.7561645507812	728.125244140625	581.0086059570312	-511.515625	1621.255615234375	406.0064392089844	-457.2723083496094	1685.906372070312	199.8751068115234	-384.80126953125	1673.600463867188	302.7125854492188	-597.526123046875	1642.186767578125	300.537109375	-631.0759887695312	940.0186767578125	132.4902038574219	-543.8417358398438	940.61083984375	466.6489868164062	-436.3331604003906	963.192626953125	404.5185546875	-509.6381530761719	948.5635375976562	147.4509429931641	-584.30126953125	477.0438232421875	229.0946807861328	-608.893798828125	616.8818969726562	177.6655426025391	-768.774658203125	50.50972747802734	288.9082946777344	-684.010009765625	248.278564453125	250.2487182617188	-563.5904541015625	43.12821960449219	306.6241149902344	-616.4847412109375	43.04476928710938	355.582763671875	-665.6473999023438	40.40386581420898	254.7454833984375	-824.4024047851562	58.81359100341797	362.300537109375	-340.6889343261719	529.6051025390625	384.6121826171875	-417.4412231445312	785.7946166992188	439.9989929199219	-259.6375427246094	43.88628387451172	377.25048828125	-315.0099182128906	410.2219543457031	387.5600280761719	-108.5088424682617	121.5500640869141	251.1505432128906	-173.2821655273438	98.86180877685547	241.4907073974609	-152.3151092529297	86.55742645263672	337.7941589355469	-324.3179626464844	32.1656608581543	346.7509460449219	
281	2.8	-629.0693359375	1006.973876953125	414.0419616699219	-689.6702270507812	1002.435546875	252.8678131103516	-664.1207275390625	1071.028076171875	321.2597961425781	-414.7628479003906	1259.086669921875	261.4280700683594	-679.968505859375	1199.32763671875	309.1149597167969	-613.709716796875	1465.548461914062	305.3078918457031	-440.491943359375	1374.333862304688	272.0975952148438	-665.526611328125	1324.222778320312	382.6189880371094	-656.293701171875	1434.747192382812	207.3143920898438	-565.9505615234375	1441.468505859375	119.612907409668	-586.9874267578125	1316.2548828125	40.04601669311523	-542.38671875	1103.5234375	11.94979953765869	-595.103759765625	1079.355346679688	100.4553298950195	-388.5682983398438	902.0694580078125	83.07733917236328	-444.87890625	868.7948608398438	29.80783081054688	-495.7757568359375	1001.321838378906	8.444571495056152	-318.7538757324219	731.5869750976562	115.052864074707	-389.7606506347656	801.8844604492188	38.5843505859375	-342.8648681640625	829.7830200195312	83.67577362060547	-522.0847778320312	1416.65185546875	464.1306457519531	-529.1820678710938	1346.80029296875	524.8801879882812	-580.4498901367188	1090.433471679688	560.7451171875	-571.6171264648438	1064.30322265625	464.1000671386719	-467.9889526367188	824.7921752929688	519.348388671875	-535.3772583007812	817.9764404296875	576.8527221679688	-574.6030883789062	1009.961364746094	570.0333862304688	-482.9035949707031	635.1427612304688	513.3712158203125	-457.3066711425781	721.5819702148438	521.6668701171875	-506.8064270019531	726.6314086914062	579.495849609375	-502.5142517089844	1620.017211914062	404.6393737792969	-449.4390258789062	1684.93359375	198.3173675537109	-376.4589538574219	1672.684204101562	300.7337951660156	-589.0853271484375	1640.840454101562	299.6160278320312	-622.83935546875	938.9019775390625	131.4281005859375	-534.4111328125	939.6777954101562	465.087646484375	-427.0557250976562	962.1524658203125	402.5895080566406	-501.5108032226562	947.2735595703125	145.8278656005859	-579.6876831054688	475.9392395019531	228.4306640625	-603.1481323242188	615.9138793945312	176.8305053710938	-768.5857543945312	51.20606994628906	289.1339721679688	-681.6845703125	248.1215972900391	250.0403900146484	-563.4974975585938	43.11846160888672	306.560302734375	-616.3358764648438	43.0380744934082	355.5562133789062	-665.4848022460938	40.54785919189453	254.8397674560547	-824.108154296875	60.27652359008789	362.5768737792969	-332.7567138671875	528.47607421875	381.6582641601562	-408.3547973632812	784.7242431640625	437.7148742675781	-251.3271636962891	43.24591445922852	372.4830322265625	-306.9001770019531	408.989013671875	384.0129699707031	-100.5378570556641	120.3567428588867	245.7004547119141	-165.4098968505859	97.84037780761719	236.2974853515625	-144.2211608886719	85.59068298339844	332.5215759277344	-316.1886901855469	31.65002250671387	342.1488647460938	
282	2.81	-619.745849609375	1006.149475097656	412.9329223632812	-680.8527221679688	1001.553955078125	251.9801483154297	-655.0048828125	1069.927612304688	320.1499938964844	-406.1131896972656	1258.011108398438	259.4967346191406	-671.1525268554688	1198.184936523438	308.0705261230469	-605.0196533203125	1464.458862304688	304.2183532714844	-431.8563232421875	1373.251953125	270.3179931640625	-656.5269775390625	1323.006103515625	381.5659790039062	-647.8994750976562	1433.677490234375	206.3491821289062	-557.8924560546875	1440.440795898438	118.2830352783203	-579.5029907226562	1315.19482421875	38.81741333007812	-535.8213500976562	1102.24853515625	10.76200771331787	-588.2774047851562	1078.408569335938	99.55893707275391	-382.8835144042969	899.942626953125	81.44487762451172	-439.4639892578125	867.0039672851562	28.33631134033203	-489.7303161621094	999.8261108398438	7.14926815032959	-314.0588684082031	729.0177001953125	113.1086883544922	-384.7898864746094	799.7953491210938	36.91208648681641	-337.6496887207031	827.3648071289062	81.88510894775391	-512.8436279296875	1415.35595703125	462.7068176269531	-519.6994018554688	1345.417236328125	523.396240234375	-570.7822265625	1088.9970703125	559.2015991210938	-562.3178100585938	1062.916625976562	462.498046875	-458.9574584960938	823.1922607421875	517.4998168945312	-526.0323486328125	816.6045532226562	575.3448486328125	-564.9520263671875	1008.606201171875	568.4471435546875	-474.1950988769531	633.643798828125	511.8279113769531	-448.4500427246094	719.9821166992188	519.8704223632812	-497.6412658691406	725.2064208984375	577.978759765625	-493.4901733398438	1618.873046875	403.2621765136719	-441.5748596191406	1684.014770507812	196.7565002441406	-368.1050109863281	1671.865112304688	298.7473449707031	-580.6239013671875	1639.566162109375	298.6893005371094	-614.56884765625	937.8286743164062	130.3473358154297	-524.8807373046875	938.822265625	463.5216369628906	-417.689697265625	961.182373046875	400.6764831542969	-493.288330078125	946.0197143554688	144.2132415771484	-574.8767700195312	474.8766784667969	227.7992706298828	-597.2646484375	614.9844970703125	176.0376892089844	-768.375	52.05252075195312	289.3440551757812	-679.2514038085938	248.0437316894531	249.8344421386719	-563.38623046875	43.10990524291992	306.4953918457031	-616.1634521484375	43.05028533935547	355.5121154785156	-665.2942504882812	40.72048568725586	254.9156494140625	-823.7799682617188	61.9355354309082	362.8557434082031	-324.6220703125	527.5050659179688	378.5140075683594	-399.1431884765625	783.7619018554688	435.3428649902344	-244.9293212890625	42.50022125244141	368.4835815429688	-298.9412841796875	407.6973876953125	380.389892578125	-94.07283782958984	117.8182830810547	240.8349609375	-159.115234375	95.761474609375	231.7305450439453	-137.8254241943359	83.80818939208984	327.9082336425781	-309.9686584472656	31.28330421447754	338.2775573730469	
283	2.82	-610.3202514648438	1005.421081542969	411.8013610839844	-671.942138671875	1000.748291015625	251.0670776367188	-645.7827758789062	1068.880981445312	319.0144348144531	-397.3570556640625	1257.024536132812	257.5997009277344	-662.2305297851562	1197.112915039062	307.0237426757812	-596.25927734375	1463.453979492188	303.1282348632812	-423.1253662109375	1372.260375976562	268.5647583007812	-647.4390258789062	1321.863647460938	380.5142211914062	-639.4069213867188	1432.670043945312	205.37890625	-549.7175903320312	1439.469848632812	116.9606628417969	-571.922607421875	1314.182373046875	37.61111068725586	-529.26220703125	1101.016235351562	9.609672546386719	-581.4517211914062	1077.528076171875	98.72135925292969	-377.4070434570312	897.6848754882812	79.71471405029297	-434.2977600097656	865.179931640625	26.76684188842773	-483.8127136230469	998.3406982421875	5.835978507995605	-309.7796020507812	726.2233276367188	110.9495544433594	-380.1639099121094	797.6100463867188	35.08121871948242	-332.7380981445312	824.7608642578125	79.93663787841797	-503.5350036621094	1414.155395507812	461.3033752441406	-510.1385803222656	1344.123413085938	521.928466796875	-560.9994506835938	1087.628662109375	557.6449584960938	-552.8787841796875	1061.606689453125	460.8806457519531	-449.7225646972656	821.6976318359375	515.6591796875	-516.5109252929688	815.314453125	573.810546875	-555.1717529296875	1007.322265625	566.83837890625	-465.1998901367188	632.2512817382812	510.2904357910156	-439.3491516113281	718.4852294921875	518.0833740234375	-488.266357421875	723.875244140625	576.4512329101562	-484.4435424804688	1617.853515625	401.8707275390625	-433.6831359863281	1683.175415039062	195.1856536865234	-359.7380676269531	1671.166259765625	296.7470703125	-572.1387329101562	1638.389404296875	297.7586669921875	-606.2666625976562	936.8115844726562	129.22705078125	-515.2432250976562	938.080078125	461.937255859375	-408.2316284179688	960.3237915039062	398.7607116699219	-484.9686584472656	944.8257446289062	142.5901489257812	-569.7944946289062	473.8592224121094	227.1876373291016	-591.1943969726562	614.1036987304688	175.2755279541016	-768.1281127929688	53.07348251342773	289.5212097167969	-676.6744995117188	248.0598602294922	249.6128540039062	-563.2578125	43.10259628295898	306.4310302734375	-615.9647216796875	43.08467102050781	355.4468994140625	-665.0736694335938	40.91870880126953	254.9603424072266	-823.4082641601562	63.83206176757812	363.1143188476562	-316.3208923339844	526.7051391601562	375.1928405761719	-389.8014526367188	782.9315185546875	432.8653564453125	-240.1614990234375	41.70119094848633	365.2268371582031	-291.1073913574219	406.3863220214844	376.7028503417969	-88.93225860595703	114.0475387573242	236.4575805664062	-154.2191467285156	92.72786712646484	227.7250518798828	-132.8923797607422	81.30522155761719	323.8793640136719	-305.3889770507812	31.08932495117188	335.1551513671875	
